<svg width="108" height="69" viewBox="0 0 108 69" fill="none" xmlns="http://www.w3.org/2000/svg">
<rect x="2" y="2" width="44" height="44" rx="22" fill="#141414" stroke="white" stroke-width="4"/>
<path d="M25.2908 14.912L31.9628 32H29.4427L27.5468 26.768H20.3708L18.4268 32H16.0267L22.7468 14.912H25.2908ZM26.8748 24.968L23.9708 17.072L21.0188 24.968H26.8748Z" fill="white"/>
<rect x="32" y="2" width="44" height="44" rx="22" fill="#141414" stroke="white" stroke-width="4"/>
<path d="M47.9468 14.912H53.4908C56.3948 14.912 58.5308 15.584 59.8988 16.928C61.2908 18.272 61.9628 20.408 61.9628 23.312C61.9628 26.192 61.3388 28.352 60.0428 29.816C58.7708 31.28 56.7308 32 53.9228 32H47.9468V14.912ZM50.1788 16.856L50.2028 30.08H53.6348C55.7708 30.08 57.3308 29.552 58.2908 28.496C59.2508 27.44 59.7308 25.808 59.7308 23.576C59.7308 21.248 59.2748 19.544 58.3148 18.464C57.3788 17.408 55.7708 16.856 53.5148 16.856H50.1788Z" fill="white"/>
<rect x="62" y="2" width="44" height="44" rx="22" fill="#141414" stroke="white" stroke-width="4"/>
<path d="M90.2108 19.928L88.0028 19.952C87.7628 17.624 86.3468 16.472 83.7548 16.472C82.5308 16.472 81.5708 16.712 80.8988 17.216C80.2268 17.696 79.8908 18.392 79.8908 19.304C79.8908 19.616 79.9388 19.904 80.0348 20.144C80.1308 20.384 80.2988 20.576 80.5388 20.768C80.7788 20.96 80.9948 21.104 81.1868 21.248C81.4028 21.368 81.7388 21.488 82.1708 21.608C82.6268 21.752 82.9868 21.848 83.2508 21.896C83.5388 21.944 83.9468 22.04 84.5228 22.16C85.2428 22.304 85.8188 22.448 86.2748 22.568C86.7548 22.688 87.3068 22.88 87.9308 23.144C88.5788 23.432 89.0828 23.72 89.4668 24.056C89.8508 24.392 90.1628 24.824 90.4508 25.352C90.7388 25.904 90.8588 26.528 90.8588 27.2C90.8588 28.4 90.5228 29.408 89.8508 30.224C89.1788 31.04 88.3628 31.592 87.4028 31.904C86.4428 32.24 85.3868 32.384 84.2108 32.384C82.0748 32.384 80.3708 31.88 79.0748 30.872C77.7788 29.864 77.1308 28.352 77.1308 26.36H79.3148C79.3628 27.824 79.8668 28.88 80.7788 29.552C81.7148 30.224 82.9148 30.56 84.4028 30.56C85.5788 30.56 86.5868 30.296 87.4268 29.816C88.2428 29.336 88.6748 28.544 88.6748 27.44C88.6748 26.912 88.5547 26.48 88.3387 26.12C88.0988 25.76 87.7628 25.472 87.2828 25.232C86.8028 24.992 86.3228 24.824 85.8428 24.68C85.3628 24.536 84.7148 24.368 83.9468 24.2C83.8268 24.176 83.7548 24.152 83.7068 24.128C81.9308 23.744 80.7788 23.408 80.2508 23.168C78.5708 22.448 77.7548 21.224 77.7548 19.448C77.7548 17.816 78.3548 16.616 79.5548 15.8C80.7548 14.984 82.2188 14.576 83.9228 14.576C85.7948 14.576 87.3068 15.032 88.4108 15.92C89.5388 16.832 90.1388 18.152 90.2108 19.928Z" fill="white"/>
<path d="M19.432 46.912V64H17.176V56.008H8.152V64H5.896V46.912H8.152V54.04H17.176V46.912H19.432ZM32.7203 60.088C32.0963 62.968 30.2963 64.408 27.3203 64.408C25.4963 64.408 24.0563 63.856 23.0243 62.704C21.9923 61.576 21.4883 59.992 21.4883 57.976C21.4883 55.984 22.0163 54.376 23.0723 53.128C24.1283 51.88 25.5203 51.256 27.2483 51.256C29.1443 51.256 30.5603 51.904 31.4723 53.2C32.3843 54.496 32.8643 56.104 32.8643 58.072V58.36H23.5523L23.5283 58.504C23.5283 59.824 23.8643 60.856 24.5603 61.6C25.2323 62.368 26.1923 62.728 27.3923 62.728C28.2803 62.728 28.9763 62.536 29.5043 62.104C30.0323 61.696 30.4403 61.024 30.7283 60.088H32.7203ZM30.7523 56.704C30.6563 55.528 30.2963 54.616 29.6723 53.944C29.0483 53.272 28.2083 52.936 27.2003 52.936C26.1923 52.936 25.3763 53.272 24.7283 53.944C24.0563 54.616 23.6723 55.552 23.5523 56.704H30.7523ZM36.4669 46.912V64H34.4029V46.912H36.4669ZM40.8273 51.616V53.368C41.7153 51.952 43.1073 51.232 45.0033 51.232C46.7313 51.232 48.0993 51.832 49.1073 52.984C50.1153 54.16 50.6433 55.744 50.6433 57.736C50.6433 59.752 50.1393 61.336 49.1313 62.536C48.1233 63.736 46.7793 64.312 45.0993 64.312C43.3233 64.312 41.9313 63.64 40.9473 62.272V68.776H38.9073V51.616H40.8273ZM44.6913 52.936C43.4913 52.936 42.5553 53.368 41.8833 54.232C41.2113 55.096 40.8753 56.272 40.8753 57.76C40.8753 59.272 41.2113 60.448 41.9073 61.312C42.6033 62.176 43.5633 62.608 44.7633 62.608C45.9153 62.608 46.8513 62.176 47.5233 61.312C48.1953 60.448 48.5313 59.272 48.5313 57.784C48.5313 56.272 48.1713 55.096 47.4993 54.232C46.8273 53.368 45.8913 52.936 44.6913 52.936ZM62.9978 60.088C62.3738 62.968 60.5738 64.408 57.5978 64.408C55.7738 64.408 54.3338 63.856 53.3018 62.704C52.2698 61.576 51.7658 59.992 51.7658 57.976C51.7658 55.984 52.2938 54.376 53.3498 53.128C54.4058 51.88 55.7978 51.256 57.5258 51.256C59.4218 51.256 60.8378 51.904 61.7498 53.2C62.6618 54.496 63.1418 56.104 63.1418 58.072V58.36H53.8298L53.8058 58.504C53.8058 59.824 54.1418 60.856 54.8378 61.6C55.5098 62.368 56.4698 62.728 57.6698 62.728C58.5578 62.728 59.2538 62.536 59.7818 62.104C60.3098 61.696 60.7178 61.024 61.0058 60.088H62.9978ZM61.0298 56.704C60.9338 55.528 60.5738 54.616 59.9498 53.944C59.3258 53.272 58.4858 52.936 57.4778 52.936C56.4698 52.936 55.6538 53.272 55.0058 53.944C54.3338 54.616 53.9498 55.552 53.8298 56.704H61.0298ZM71.0404 51.328L71.0164 53.464C70.8724 53.44 70.7044 53.44 70.4884 53.44C69.8404 53.44 69.2644 53.536 68.7844 53.728C68.3044 53.92 67.9444 54.184 67.6564 54.496C67.3684 54.832 67.1524 55.216 66.9604 55.696C66.7924 56.176 66.6724 56.656 66.6244 57.136C66.5764 57.616 66.5524 58.168 66.5524 58.768V64H64.5124V51.616H66.4564V54.28C67.2724 52.312 68.7844 51.328 71.0404 51.328Z" fill="#141414"/>
</svg>
